<svg width="86" height="40" viewBox="0 0 86 40" fill="none" xmlns="http://www.w3.org/2000/svg">
<g clip-path="url(#clip0_460_22431)">
<path d="M2.16276 40.0005C1.58916 40.0005 1.03905 39.7533 0.633456 39.3133C0.227861 38.8734 0 38.2766 0 37.6544V2.35044C0 1.72823 0.227861 1.1315 0.633456 0.691532C1.03905 0.251564 1.58916 0.00439453 2.16276 0.00439453C2.73636 0.00439453 3.28646 0.251564 3.69206 0.691532C4.09765 1.1315 4.32551 1.72823 4.32551 2.35044V37.6544C4.32551 38.2766 4.09765 38.8734 3.69206 39.3133C3.28646 39.7533 2.73636 40.0005 2.16276 40.0005V40.0005Z" fill="#CEDC21"/>
<path d="M2.16633 40C1.67578 39.9988 1.20018 39.8167 0.817588 39.4837C0.434999 39.1506 0.168154 38.6864 0.0608503 38.1672C-0.046453 37.6479 0.0121611 37.1045 0.227071 36.6262C0.441981 36.1479 0.800419 35.763 1.24355 35.5347L14.285 28.8211L0.883093 18.1154C0.644816 17.937 0.441989 17.7085 0.286641 17.4434C0.131292 17.1784 0.0265851 16.8822 -0.0212741 16.5725C-0.0691334 16.2627 -0.0591696 15.9457 0.00802668 15.6402C0.0752229 15.3347 0.198282 15.0469 0.369911 14.794C0.541539 14.5411 0.758242 14.3281 1.00717 14.1677C1.2561 14.0073 1.53218 13.9027 1.81905 13.8602C2.10592 13.8177 2.39774 13.8381 2.6772 13.9202C2.95667 14.0023 3.21809 14.1445 3.44596 14.3383L19.7531 27.3705C20.054 27.6116 20.292 27.9331 20.444 28.3038C20.5961 28.6744 20.6569 29.0815 20.6206 29.4853C20.5843 29.8891 20.4521 30.2757 20.2369 30.6075C20.0216 30.9393 19.7308 31.2049 19.3927 31.3783L3.09271 39.7732C2.80362 39.9236 2.48693 40.0011 2.16633 40V40Z" fill="#51B13E"/>
<path d="M2.16667 26.1232C1.71118 26.1232 1.26732 25.9672 0.898359 25.6775C0.529399 25.3878 0.254179 24.9791 0.111942 24.5098C-0.0302958 24.0404 -0.0322892 23.5343 0.106245 23.0636C0.244779 22.5929 0.516768 22.1817 0.883432 21.8886L14.2781 11.1711L1.24389 4.46922C0.986856 4.33752 0.756252 4.15218 0.565247 3.9238C0.374241 3.69542 0.226574 3.42847 0.130678 3.13818C0.0347813 2.8479 -0.00746805 2.53996 0.00634371 2.23197C0.0201555 1.92397 0.089757 1.62194 0.211174 1.34312C0.332592 1.0643 0.503448 0.814158 0.713987 0.606966C0.924525 0.399773 1.17062 0.239592 1.43823 0.135569C1.70584 0.0315457 1.98971 -0.0142841 2.27364 0.000698096C2.55758 0.0156803 2.83601 0.0911818 3.09305 0.222889L19.4002 8.61781C19.7383 8.79125 20.0292 9.05683 20.2444 9.38862C20.4596 9.72041 20.5918 10.1071 20.6281 10.5108C20.6645 10.9146 20.6036 11.3217 20.4516 11.6924C20.2996 12.063 20.0615 12.3846 19.7607 12.6256L3.4463 25.6657C3.07554 25.9621 2.62724 26.1224 2.16667 26.1232Z" fill="#CEDC21"/>
<path d="M4.32556 15.0381V24.9618L10.5291 20.0039L4.32556 15.0381Z" fill="#1E7A44"/>
<path d="M4.32551 10.8778H0V22.3148H4.32551V10.8778Z" fill="white"/>
<path d="M4.32551 2.35044C4.32551 1.72823 4.09765 1.1315 3.69206 0.691532C3.28646 0.251564 2.73636 0.00439453 2.16276 0.00439453C1.58916 0.00439453 1.03905 0.251564 0.633456 0.691532C0.227861 1.1315 0 1.72823 0 2.35044V31.8949H4.32551V2.35044Z" fill="#CEDC21"/>
<path d="M32.9352 19.7185C34.3194 20.1447 35.098 21.5054 35.098 23.2102C35.098 25.8729 33.6021 27.1202 31.5583 27.1202H26.8867V12.8915H31.0068C33.0109 12.8915 34.5645 13.9277 34.5645 16.6295C34.5645 17.9902 34.0454 19.2493 32.9352 19.7185ZM31.0248 19.3705C32.5027 19.3705 33.703 18.8035 33.703 16.61C33.703 14.4164 32.4666 13.8064 30.9671 13.8064H27.7662V19.3822L31.0248 19.3705ZM31.4934 26.1779C32.9893 26.1779 34.1896 25.3255 34.1896 23.2102C34.1896 20.9345 32.8235 20.2463 31.1185 20.2463H27.7662V26.1779H31.4934Z" fill="#222222"/>
<path d="M43.8535 12.8915V13.7634H40.2489V27.1124H39.3694V13.7634H35.7648V12.8915H43.8535Z" fill="#222222"/>
<path d="M50.0137 12.6881C52.2449 12.6881 54.2671 13.908 54.9051 16.8132H54.0617C53.4633 14.4359 51.7007 13.5601 49.9957 13.5601C46.9065 13.5601 45.2773 16.2971 45.2773 19.9999C45.2773 23.91 46.9065 26.4007 50.0137 26.4007C51.852 26.4007 53.4993 25.5053 54.1374 22.8817H54.9772C54.7805 24.1448 54.1701 25.2884 53.2582 26.1023C52.3463 26.9162 51.1942 27.3457 50.0137 27.3118C46.5136 27.3118 44.4158 24.5082 44.4158 19.996C44.4158 15.6754 46.6254 12.6881 50.0137 12.6881Z" fill="#222222"/>
<path d="M61.5701 12.8915C63.8373 12.8915 65.4846 14.4946 65.4846 17.5836C65.4846 20.5083 63.8373 22.2756 61.5701 22.2756H58.1241V27.0928H57.2626V12.8915H61.5701ZM61.5701 21.3607C63.239 21.3607 64.6051 20.1877 64.6051 17.5836C64.6051 14.9795 63.2931 13.7869 61.5701 13.7869H58.1241V21.3607H61.5701Z" fill="#222222"/>
<path d="M65.6361 27.1124V26.9912L70.8592 12.8524H71.2557L76.4247 26.9912V27.1124H75.4983L74.0204 23.0069H68.0512L66.5733 27.1124H65.6361ZM71.043 14.5377L68.3504 22.1193H73.7248L71.043 14.5377Z" fill="#222222"/>
<path d="M84.1961 12.8915H85.1333V13.0322L81.0493 21.2004V27.1124H80.1517V21.2004L76.0497 13.0127V12.8915H77.0049L78.782 16.5083L80.5843 20.2659L82.3866 16.5083L84.1961 12.8915Z" fill="#222222"/>
</g>
<defs>
<clipPath id="clip0_460_22431">
<rect width="85.1333" height="40" fill="white"/>
</clipPath>
</defs>
</svg>
