<svg width="21" height="40" viewBox="0 0 21 40" fill="none" xmlns="http://www.w3.org/2000/svg">
<path d="M2.21378 40.0027C1.64018 40.0027 1.09008 39.7555 0.684482 39.3155C0.278886 38.8756 0.0510254 38.2788 0.0510254 37.6566V2.35263C0.0510254 1.73042 0.278886 1.1337 0.684482 0.693729C1.09008 0.253761 1.64018 0.0065918 2.21378 0.0065918C2.78738 0.0065918 3.33749 0.253761 3.74308 0.693729C4.14868 1.1337 4.37654 1.73042 4.37654 2.35263V37.6566C4.37654 38.2788 4.14868 38.8756 3.74308 39.3155C3.33749 39.7555 2.78738 40.0027 2.21378 40.0027V40.0027Z" fill="#CEDC21"/>
<path d="M2.21735 40.0022C1.7268 40.001 1.2512 39.8189 0.868613 39.4859C0.486025 39.1528 0.219179 38.6886 0.111876 38.1694C0.00457237 37.6501 0.0631865 37.1067 0.278096 36.6284C0.493006 36.15 0.851444 35.7652 1.29458 35.5369L14.336 28.8233L0.934119 18.1176C0.695841 17.9392 0.493015 17.7106 0.337666 17.4456C0.182318 17.1806 0.0776105 16.8844 0.0297513 16.5747C-0.018108 16.2649 -0.00814417 15.9479 0.0590521 15.6424C0.126248 15.3369 0.249308 15.0491 0.420936 14.7962C0.592564 14.5432 0.809268 14.3303 1.05819 14.1699C1.30712 14.0095 1.5832 13.9049 1.87008 13.8624C2.15695 13.8199 2.44877 13.8403 2.72823 13.9224C3.00769 14.0045 3.26911 14.1467 3.49699 14.3405L19.8042 27.3727C20.105 27.6138 20.343 27.9353 20.4951 28.306C20.6471 28.6766 20.7079 29.0837 20.6716 29.4875C20.6353 29.8913 20.5031 30.2779 20.2879 30.6097C20.0727 30.9415 19.7818 31.2071 19.4437 31.3805L3.14374 39.7754C2.85465 39.9258 2.53796 40.0033 2.21735 40.0022V40.0022Z" fill="#51B13E"/>
<path d="M2.21769 26.1253C1.76221 26.1253 1.31835 25.9693 0.949385 25.6796C0.580424 25.3899 0.305204 24.9812 0.162967 24.5118C0.0207296 24.0425 0.0187362 23.5363 0.15727 23.0657C0.295804 22.595 0.567793 22.1838 0.934457 21.8907L14.3291 11.1732L1.29492 4.4713C1.03788 4.33959 0.807278 4.15426 0.616272 3.92587C0.425267 3.69749 0.2776 3.43054 0.181703 3.14026C0.0858067 2.84997 0.0435573 2.54204 0.0573691 2.23404C0.0711809 1.92605 0.140782 1.62402 0.2622 1.3452C0.383617 1.06638 0.554474 0.816233 0.765012 0.609041C0.97555 0.401848 1.22165 0.241668 1.48925 0.137644C1.75686 0.0336209 2.04074 -0.012209 2.32467 0.00277329C2.6086 0.0177555 2.88704 0.093257 3.14407 0.224964L19.4513 8.61988C19.7894 8.79332 20.0802 9.0589 20.2954 9.39069C20.5106 9.72248 20.6429 10.1091 20.6792 10.5129C20.7155 10.9167 20.6547 11.3238 20.5026 11.6944C20.3506 12.0651 20.1125 12.3866 19.8117 12.6277L3.49732 25.6678C3.12657 25.9642 2.67826 26.1245 2.21769 26.1253Z" fill="#CEDC21"/>
<path d="M4.37659 15.0403V24.964L10.5801 20.0061L4.37659 15.0403Z" fill="#1E7A44"/>
<path d="M4.37654 10.8799H0.0510254V22.3168H4.37654V10.8799Z" fill="white"/>
<path d="M4.37654 2.35263C4.37654 1.73042 4.14868 1.1337 3.74308 0.69373C3.33749 0.253761 2.78738 0.0065918 2.21378 0.0065918C1.64018 0.0065918 1.09008 0.253761 0.684482 0.69373C0.278886 1.1337 0.0510254 1.73042 0.0510254 2.35263V31.8971H4.37654V2.35263Z" fill="#CEDC21"/>
</svg>
